<?xml version="1.0" encoding="utf-8"?>
<!-- Generator: Adobe Illustrator 18.1.0, SVG Export Plug-In . SVG Version: 6.00 Build 0)  -->
<!DOCTYPE svg PUBLIC "-//W3C//DTD SVG 1.1//EN" "http://www.w3.org/Graphics/SVG/1.1/DTD/svg11.dtd">
<svg version="1.1" id="Layer_1" xmlns="http://www.w3.org/2000/svg" xmlns:xlink="http://www.w3.org/1999/xlink" x="0px" y="0px"
	 viewBox="149.8 346.9 313.8 95.7" enable-background="new 149.8 346.9 313.8 95.7" xml:space="preserve">
<g>
	<path fill="#FFFFFF" d="M413.1,350.2c0.5-2.3,2.8-3.6,5.1-3.1c2.3,0.5,3.6,2.8,3.1,5.1c-0.5,2.3-12.8,36-12.8,36
		S412.6,352.4,413.1,350.2z"/>
	<path fill="#FFFFFF" d="M391.3,357.9c-0.7-2.2,0.5-4.6,2.7-5.3c2.2-0.7,4.6,0.5,5.3,2.7c0.7,2.2,6,33.5,6,33.5
		S391.9,360.1,391.3,357.9z"/>
	<path fill="#FFFFFF" d="M376,376.5c-1.9-1.4-2.3-4-0.9-5.9c1.4-1.9,4-2.3,5.9-0.9s21.3,20.9,21.3,20.9S377.9,378,376,376.5z"/>
	<path fill="#FFFFFF" d="M376.8,398.6c-2.3,0-4.2-1.9-4.2-4.2c0-2.3,1.9-4.2,4.2-4.2c2.3,0,25.2,4.2,25.2,4.2
		S379.1,398.6,376.8,398.6z"/>
	<path fill="#FFFFFF" d="M391,415.3c-1.7,1.6-4.4,1.5-5.9-0.2c-1.6-1.7-1.5-4.4,0.2-6s18.2-11.4,18.2-11.4S392.7,413.7,391,415.3z"
		/>
	<path fill="#FFFFFF" d="M411.1,415.2c0.1,2.2-1.7,4.1-3.9,4.1c-2.2,0.1-4.1-1.7-4.1-3.9c-0.1-2.2,3.7-16.3,3.7-16.3
		S411.1,413,411.1,415.2z"/>
	<path fill="#FFFFFF" d="M457.6,368.6c2.2-1,4.7,0,5.6,2.2c1,2.2-0.1,4.7-2.2,5.6c-2.2,1-47.8,16.5-47.8,16.5
		S455.4,369.5,457.6,368.6z"/>
	<path fill="#FFFFFF" d="M436.5,354.5c1.6-1.9,4.3-2.2,6.1-0.6c1.7,1.5,1.9,4.2,0.3,6.1c-1.6,1.9-31.4,30-31.4,30
		S434.9,356.3,436.5,354.5z"/>
</g>
<text transform="matrix(0.9972 0 0 1 243.9086 442.6249)" fill="#FFFFFF" font-family="'Digna'" font-size="14.0161">It’s what we do.™</text>
<g>
	<polygon fill="#FFFFFF" points="156.2,428.2 152,428.2 152,406.2 149.8,405.3 149.8,402.6 156.2,402.6 	"/>
	<path fill="#FFFFFF" d="M200.9,428.3h-4.3v-15.4c0-2.5-0.4-4.3-1.3-5.4c-0.8-1.1-2.3-1.7-4.3-1.7c-1.7,0-3.2,0.5-4.4,1.5
		c-1,0.8-1.7,1.9-2.2,3.1v17.9h-4.3v-15.4c0-2.5-0.4-4.3-1.3-5.4c-0.8-1.1-2.3-1.7-4.3-1.7c-1.7,0-3.2,0.5-4.4,1.5
		c-1,0.8-1.7,1.9-2.2,3.1v17.9h-4.2l0.1-25.6h2.1l1.4,2.6c2-2.1,4.4-3.2,7.2-3.2c1.8,0,3.4,0.4,5,1.1c1.6,0.7,2.7,1.7,3.5,2.9
		c2.1-2.6,4.7-3.9,7.9-3.9c6.6,0,9.9,3.3,9.9,10L200.9,428.3z"/>
	<path fill="#FFFFFF" d="M231.7,415.3c0,3.9-1,7.1-2.8,9.4c-2.1,2.6-5.1,3.9-9.1,3.9c-2.5,0-5-0.7-7.5-2.2v12.2h-4.2l0.1-36h2.6
		l1,2.7c0.7-0.8,1.6-1.5,2.9-2.1c1.6-0.8,3.2-1.1,5-1.1c3.9,0,6.9,1.1,9,3.3C230.7,407.8,231.7,411.1,231.7,415.3z M227.4,415.3
		c0-6.4-2.6-9.6-7.9-9.6c-1.7,0-3.3,0.5-4.7,1.6c-1.2,0.9-2,1.8-2.5,2.9V422c2.5,2.2,5,3.2,7.4,3.2
		C224.8,425.3,227.4,421.9,227.4,415.3z"/>
	<path fill="#FFFFFF" d="M253.2,403.1l-1.1,3.5c-1.2-0.5-2.4-0.8-3.6-0.8c-1.6,0-3,0.5-4.2,1.4c-1.1,0.8-1.8,1.8-2.2,2.9v18h-4.2
		l0.1-25.6h2.2l0.8,2.7c0.7-0.8,1.6-1.5,2.9-2.2c1.6-0.8,3-1.1,4.7-1.1C250.1,402.2,251.7,402.5,253.2,403.1z"/>
	<path fill="#FFFFFF" d="M279,415.5c0,4.2-1,7.4-2.8,9.7c-2,2.5-5,3.7-9,3.7c-3.9,0-6.9-1.3-9-3.8c-1.9-2.3-2.7-5.5-2.7-9.7
		c0-3.9,0.9-7.1,2.7-9.3c2-2.6,5-3.9,9.1-3.9c3.9,0,6.9,1.3,9,3.9C278,408.5,279,411.6,279,415.5z M274.6,415.5
		c0-6.5-2.5-9.7-7.5-9.7s-7.5,3.2-7.5,9.7c0,3.3,0.5,5.8,1.7,7.4c1.2,1.7,3.1,2.6,5.8,2.6c2.7,0,4.7-0.8,5.9-2.6
		C274.1,421.2,274.6,418.8,274.6,415.5z"/>
	<path fill="#FFFFFF" d="M306.1,402.8l-8.8,25.5h-6l-8.7-25.6h4.5l7.2,22.2l7.4-22.2L306.1,402.8z"/>
	<polygon fill="#FFFFFF" points="317.1,428.4 312.8,428.4 312.9,406.4 310.6,405.6 310.6,402.9 317.1,402.9 	"/>
	<path fill="#FFFFFF" d="M346.4,428.5h-4.3V413c0-4.8-2-7.2-5.9-7.2c-1.8,0-3.3,0.5-4.8,1.5c-1.3,1-2.1,2-2.5,3.1v17.9h-4.2
		l0.1-25.6h2.6l0.9,2.8c0.7-0.9,1.8-1.6,3.1-2.2c1.6-0.7,3.2-1.1,4.8-1.1c6.8,0,10.2,3.3,10.2,10L346.4,428.5z"/>
	<path fill="#FFFFFF" d="M376.5,402.9l-0.1,24.9c0,3.5-1,6.3-3.1,8.4c-2.1,2-5,3-8.7,3c-3,0-5.8-1-8.4-3l2.3-3.2
		c2.1,1.6,4.1,2.5,6,2.5c5.1,0,7.6-2.6,7.6-7.8v-2.1c-2.2,1.8-4.7,2.6-7.5,2.6c-3.4,0-6.2-1.3-8.4-3.7c-2.2-2.5-3.2-5.6-3.2-9.3
		c0-3.9,1-7.1,3.1-9.4c2-2.3,5-3.4,9-3.4c2.7,0,5.2,0.8,7.4,2.3l1-1.8L376.5,402.9z M372.3,421.3v-12.1c-0.6-0.7-1.5-1.3-2.6-1.9
		c-1.6-0.8-3.1-1.3-4.6-1.3c-5.1,0-7.6,3-7.6,9.1c0,2.7,0.6,4.9,1.8,6.5c1.3,1.8,3.2,2.7,5.8,2.7
		C367.6,424.4,370.1,423.4,372.3,421.3z"/>
</g>
</svg>
